<svg width="2500" height="2500" viewBox="0 0 2500 2500" fill="none" xmlns="http://www.w3.org/2000/svg">
<g clip-path="url(#clip0_709_352)">
<path d="M1250 2500C1940.36 2500 2500 1940.36 2500 1250C2500 559.644 1940.36 0 1250 0C559.644 0 0 559.644 0 1250C0 1940.36 559.644 2500 1250 2500Z" fill="white"/>
<path d="M883.1 683.6C937 683.6 986.2 688.4 1030.7 697.9C1075.2 707.4 1113.2 723 1144.9 744.7C1176.6 766.4 1201.2 795.2 1218.7 831.2C1236.2 867.2 1244.9 911.6 1244.9 964.5C1244.9 1021.6 1231.9 1069.2 1206 1107.3C1180.1 1145.4 1141.7 1176.6 1091 1200.9C1160.8 1221 1212.9 1256.2 1247.3 1306.4C1281.7 1356.6 1298.9 1417.2 1298.9 1488.1C1298.9 1545.2 1287.8 1594.7 1265.6 1636.5C1243.4 1678.3 1213.5 1712.4 1175.9 1738.8C1138.3 1765.3 1095.5 1784.8 1047.4 1797.5C999 1810.2 949.1 1816.6 899.1 1816.5H350V683.6H883.1ZM851.4 1142.1C895.8 1142.1 932.3 1131.5 960.9 1110.4C989.5 1089.2 1003.8 1054.9 1003.7 1007.3C1003.7 980.9 998.9 959.2 989.4 942.3C979.9 925.4 967.2 912.1 951.3 902.6C935.4 893.1 917.2 886.5 896.6 882.8C875.4 879.1 853.9 877.2 832.3 877.3H599.2V1142.3L851.4 1142.1ZM865.7 1622.8C889.2 1622.9 912.6 1620.5 935.5 1615.7C957.7 1610.9 977.3 1603 994.2 1591.9C1011.1 1580.8 1024.6 1565.7 1034.7 1546.7C1044.7 1527.7 1049.8 1503.3 1049.8 1473.7C1049.8 1415.6 1033.4 1374 1000.6 1349.2C967.8 1324.3 924.4 1311.9 870.5 1311.9H599.2V1622.9L865.7 1622.8ZM1612.3 1599C1646.1 1631.8 1694.8 1648.2 1758.3 1648.2C1803.8 1648.2 1842.9 1636.8 1875.7 1614.1C1908.5 1591.4 1928.6 1567.3 1936 1541.9H2134.3C2102.6 1640.3 2053.9 1710.6 1988.3 1752.9C1922.7 1795.2 1843.4 1816.4 1750.3 1816.4C1685.8 1816.4 1627.6 1806.1 1575.8 1785.5C1524 1764.9 1480.1 1735.5 1444.1 1697.4C1408.1 1659.3 1380.3 1613.9 1360.8 1561C1341.3 1508.1 1331.5 1449.9 1331.5 1386.5C1331.5 1325.2 1341.5 1268.1 1361.6 1215.2C1381.7 1162.3 1410.3 1116.6 1447.3 1078C1484.3 1039.4 1528.5 1009 1579.8 986.8C1631.1 964.6 1688 953.5 1750.4 953.5C1820.2 953.5 1881 967 1932.9 994C1984.7 1021 2027.3 1057.2 2060.6 1102.7C2093.9 1148.2 2118 1200 2132.8 1258.2C2147.6 1316.4 2152.9 1377.2 2148.7 1440.7H1556.9C1560 1513.4 1578.5 1566.3 1612.3 1599ZM1867 1167.5C1840 1137.9 1799 1123.1 1744 1123.1C1708 1123.1 1678.1 1129.2 1654.4 1141.3C1630.6 1153.5 1611.6 1168.5 1597.3 1186.5C1583 1204.5 1573 1223.5 1567.2 1243.6C1561.4 1263.7 1557.9 1281.7 1556.9 1297.5H1923.4C1912.7 1240.5 1893.9 1197.1 1867 1167.5ZM1518.3 741.1H1976.2V868.1H1518.3V741.1Z" fill="#002FA7"/>
</g>
<defs>
<clipPath id="clip0_709_352">
<rect width="2500" height="2500" fill="white"/>
</clipPath>
</defs>
</svg>
