<svg width="512" height="512" viewBox="0 0 512 512" fill="none" xmlns="http://www.w3.org/2000/svg">
<path d="M210.15 235.15C214.5 232 216.6 226.8 216.6 219.65C216.75 216.25 216.05 212.9 214.55 209.85C213.2 207.4 211.2 205.35 208.75 203.9C206.21 202.359 203.388 201.34 200.45 200.9C197.25 200.3 194 200 190.8 200.05H155.65V239.9H193.7C200.25 239.95 205.8 238.35 210.15 235.15ZM216.05 271.15C211.15 267.4 204.6 265.55 196.45 265.55H155.55V312.55H195.65C199.4 312.55 202.85 312.2 206.2 311.5C209.37 310.88 212.391 309.658 215.1 307.9C217.65 306.25 219.7 304 221.25 301.1C222.75 298.2 223.5 294.5 223.5 290.05C223.5 281.2 221 274.95 216.05 271.15ZM256 32C132.3 32 32 132.3 32 256C32 379.7 132.3 480 256 480C379.7 480 480 379.7 480 256C480 132.3 379.7 32 256 32ZM299.25 175.45H368.45V192.3H299.25V175.45ZM256 314.4C252.763 320.544 248.141 325.851 242.5 329.9C236.6 334 230.05 337 223.1 338.75C215.829 340.698 208.328 341.657 200.8 341.6H118V171.05H198.5C206.65 171.05 214.05 171.8 220.8 173.2C227.5 174.6 233.2 177 238 180.25C242.75 183.5 246.5 187.85 249.15 193.25C251.75 198.6 253.1 205.3 253.1 213.25C253.1 221.85 251.15 228.95 247.25 234.7C243.3 240.45 237.6 245.1 229.85 248.75C240.4 251.75 248.15 257.1 253.25 264.6C258.45 272.2 261 281.3 261 292C261 300.7 259.35 308.15 256 314.4ZM395.4 288H306.2C306.2 297.7 309.55 307 314.6 312C319.7 316.95 327 319.45 336.55 319.45C343.45 319.45 349.3 317.7 354.3 314.25C359.25 310.8 362.25 307.15 363.35 303.35H393.25C388.45 318.2 381.15 328.8 371.25 335.2C361.45 341.6 349.45 344.8 335.5 344.8C325.75 344.8 317 343.2 309.15 340.15C301.6 337.2 294.8 332.7 289.2 326.9C283.679 320.944 279.411 313.938 276.65 306.3C273.6 297.85 272.1 288.95 272.2 280C272.2 270.75 273.75 262.15 276.75 254.15C282.5 238.6 294.45 226.15 309.7 219.7C317.85 216.3 326.6 214.6 335.45 214.7C345.95 214.7 355.05 216.7 362.95 220.8C370.555 224.715 377.159 230.326 382.25 237.2C387.3 244.05 390.85 251.85 393.1 260.65C395.25 269.3 396 278.4 395.4 288ZM334.4 240.2C329 240.2 324.45 241.15 320.95 243C317.45 244.85 314.55 247.15 312.35 249.8C310.255 252.359 308.706 255.32 307.8 258.5C307 261.15 306.45 263.85 306.25 266.6H361.5C360.7 257.95 357.7 251.55 353.7 247.05C349.5 242.6 342.75 240.2 334.4 240.2Z" fill="white"/>
</svg>
