<?xml version="1.0" encoding="UTF-8"?>
<svg xmlns="http://www.w3.org/2000/svg" xmlns:xlink="http://www.w3.org/1999/xlink" width="34px" height="51px" viewBox="0 0 34 50" version="1.1">
<g id="surface1">
<path style=" stroke:none;fill-rule:nonzero;fill:rgb(3.921569%,81.176471%,51.372549%);fill-opacity:1;" d="M 8.5 50 C 13.191406 50 17 46.265625 17 41.667969 L 17 33.332031 L 8.5 33.332031 C 3.8125 33.332031 0.00390625 37.066406 0.00390625 41.667969 C 0.00390625 46.265625 3.8125 50 8.5 50 Z M 8.5 50 "/>
<path style=" stroke:none;fill-rule:nonzero;fill:rgb(63.529412%,34.901961%,100%);fill-opacity:1;" d="M 0.00390625 25 C 0.00390625 20.398438 3.8125 16.667969 8.5 16.667969 L 17 16.667969 L 17 33.332031 L 8.5 33.332031 C 3.8125 33.332031 0.00390625 29.601562 0.00390625 25 Z M 0.00390625 25 "/>
<path style=" stroke:none;fill-rule:nonzero;fill:rgb(94.901961%,30.588235%,11.764706%);fill-opacity:1;" d="M 0.00390625 8.332031 C 0.00390625 3.734375 3.8125 0 8.5 0 L 17 0 L 17 16.667969 L 8.5 16.667969 C 3.8125 16.667969 0.00390625 12.933594 0.00390625 8.332031 Z M 0.00390625 8.332031 "/>
<path style=" stroke:none;fill-rule:nonzero;fill:rgb(100%,44.705882%,38.431373%);fill-opacity:1;" d="M 17 0 L 25.5 0 C 30.1875 0 33.996094 3.734375 33.996094 8.332031 C 33.996094 12.933594 30.1875 16.667969 25.5 16.667969 L 17 16.667969 Z M 17 0 "/>
<path style=" stroke:none;fill-rule:nonzero;fill:rgb(10.196078%,73.72549%,99.607843%);fill-opacity:1;" d="M 33.996094 25 C 33.996094 29.601562 30.1875 33.332031 25.5 33.332031 C 20.808594 33.332031 17 29.601562 17 25 C 17 20.398438 20.808594 16.667969 25.5 16.667969 C 30.1875 16.667969 33.996094 20.398438 33.996094 25 Z M 33.996094 25 "/>
</g>
</svg>
